<svg version="1.2" xmlns="http://www.w3.org/2000/svg" viewBox="0 0 184 9" width="184" height="9"><style>tspan{white-space:pre}.a{font-size: 12px;fill: #000000;font-weight: 400;font-family: "ArialMT", "Arial"}</style><text style="transform:matrix(.893,0,0,1,92,9)" ><tspan x="0" y="0" class="a">1</tspan><tspan  y="0" class="a">0</tspan><tspan  y="0" class="a">x</tspan><tspan  y="0" class="a"> </tspan><tspan  y="0" class="a"> </tspan><tspan  y="0" class="a">1</tspan><tspan  y="0" class="a">2</tspan><tspan  y="0" class="a">x</tspan><tspan  y="0" class="a"> </tspan><tspan  y="0" class="a"> </tspan><tspan  y="0" class="a">1</tspan><tspan  y="0" class="a">4</tspan><tspan  y="0" class="a">x</tspan><tspan  y="0" class="a"> </tspan><tspan  y="0" class="a"> </tspan><tspan  y="0" class="a">1</tspan><tspan  y="0" class="a">6</tspan><tspan  y="0" class="a">x</tspan><tspan  y="0" class="a">
</tspan></text><text style="transform:matrix(.893,0,0,1,92,9)" ><tspan x="0" y="0" class="a">1</tspan><tspan  y="0" class="a">0</tspan><tspan  y="0" class="a">x</tspan><tspan  y="0" class="a"> </tspan><tspan  y="0" class="a"> </tspan><tspan  y="0" class="a">1</tspan><tspan  y="0" class="a">2</tspan><tspan  y="0" class="a">x</tspan><tspan  y="0" class="a"> </tspan><tspan  y="0" class="a"> </tspan><tspan  y="0" class="a">1</tspan><tspan  y="0" class="a">4</tspan><tspan  y="0" class="a">x</tspan><tspan  y="0" class="a"> </tspan><tspan  y="0" class="a"> </tspan><tspan  y="0" class="a">1</tspan><tspan  y="0" class="a">6</tspan><tspan  y="0" class="a">x</tspan><tspan  y="0" class="a">
</tspan></text><path  d="m75.4 9l2.2-3.2-2-3h1.3l1.3 2.1 1.6-2.1h1.3l-2.2 2.9 2.3 3.3h-1.3l-1.6-2.5-1.6 2.5zm-4.7-4.7q-1.3-0.5-1.3-1.8 0-1 0.7-1.6 0.8-0.6 1.8-0.6 1.1 0 1.8 0.6 0.7 0.7 0.7 1.7 0 0.6-0.3 1-0.4 0.5-1 0.7 0.8 0.3 1.3 0.8 0.4 0.5 0.4 1.4 0 1.2-0.8 1.9-0.8 0.7-2.1 0.7-1.2 0-2-0.8-0.8-0.7-0.8-1.9 0-0.8 0.4-1.4 0.5-0.5 1.2-0.7zm-0.2-1.8q0 0.6 0.4 1 0.4 0.3 1 0.3 0.6 0 1-0.3 0.5-0.4 0.5-0.9 0-0.6-0.4-1-0.4-0.3-1.1-0.3-0.6 0-1 0.3-0.4 0.3-0.4 0.9zm0.1 2.8q-0.4 0.4-0.4 1.1 0 0.8 0.5 1.2 0.5 0.5 1.2 0.5 0.8 0 1.3-0.5 0.5-0.4 0.5-1.1 0-0.8-0.5-1.2-0.5-0.4-1.3-0.4-0.8 0-1.3 0.4zm-18.2 3.7l2.2-3.2-2.1-3h1.4l1.3 2.1 1.6-2.1h1.2l-2.2 2.9 2.4 3.3h-1.3l-1.7-2.5-1.5 2.5zm-0.8-6.5h-1.1q-0.1-0.6-0.5-0.9-0.3-0.3-0.9-0.3-1.9 0-1.9 2.8 0.3-0.4 0.8-0.6 0.4-0.2 1.1-0.2 1.1 0 1.9 0.8 0.7 0.8 0.7 2 0 0.8-0.3 1.5-0.3 0.7-1 1.1-0.6 0.4-1.4 0.4-0.8 0-1.4-0.3-0.6-0.4-0.9-0.9-0.3-0.6-0.5-1.3-0.2-0.8-0.2-1.7 0-4.6 3.1-4.6 1 0 1.7 0.6 0.8 0.7 0.8 1.6zm-4.2 3.6q0 0.9 0.4 1.4 0.5 0.6 1.2 0.6 0.8 0 1.2-0.6 0.5-0.5 0.5-1.3 0-0.9-0.5-1.4-0.4-0.5-1.2-0.5-0.8 0-1.2 0.5-0.4 0.5-0.4 1.3zm-18 2.9l2.2-3.2-2.1-3h1.3l1.4 2.1 1.6-2.1h1.2l-2.2 2.9 2.4 3.3h-1.3l-1.7-2.5-1.6 2.5zm-0.7-1v1h-5.7q0-1.3 2.2-3.2 0.2-0.1 0.5-0.4 0.3-0.2 0.4-0.3 0.2-0.1 0.4-0.4 0.3-0.2 0.4-0.4 0.1-0.1 0.3-0.3 0.2-0.3 0.2-0.4 0.1-0.2 0.2-0.4 0-0.3 0-0.5 0-0.7-0.4-1-0.5-0.4-1.2-0.4-0.8 0-1.2 0.4-0.5 0.4-0.5 1.2h-1.1q0-1.1 0.8-1.9 0.8-0.7 2-0.7 1.2 0 1.9 0.7 0.8 0.6 0.8 1.7 0 0.3-0.1 0.6 0 0.3-0.1 0.5-0.1 0.3-0.3 0.5-0.2 0.3-0.3 0.5-0.2 0.1-0.4 0.4-0.3 0.2-0.4 0.4-0.2 0.1-0.5 0.4-0.3 0.2-0.4 0.3-0.2 0.2-0.5 0.4-0.3 0.3-0.5 0.4-0.1 0.1-0.4 0.4-0.2 0.2-0.3 0.5zm-22.2 1l2.2-3.2-2.1-3h1.4l1.3 2.1 1.6-2.1h1.2l-2.2 2.9 2.4 3.3h-1.3l-1.7-2.5-1.6 2.5zm-2.2 0h-1.1v-6.7q-0.3 0.5-0.9 0.9-0.6 0.4-1.2 0.5v-1.2q0.7-0.3 1.3-0.9 0.6-0.5 0.8-1.2h1.1z"/><path fill-rule="evenodd" d="m19 5h1v1h-1z"/><path fill-rule="evenodd" d="m41 4h2v2h-2z"/><path fill-rule="evenodd" d="m62 2h6v6h-6z"/><path fill-rule="evenodd" d="m84 1h8v8h-8z"/></svg>